<svg width="266" height="162" viewBox="0 0 266 162" fill="none" xmlns="http://www.w3.org/2000/svg">
<g clip-path="url(#clip0_249_2)">
<rect y="0.849304" width="266" height="161" rx="23" fill="#211B67"/>
<rect x="127" y="25.8493" width="108" height="10" rx="5" fill="#DFDFDF"/>
<rect x="30" y="20.8493" width="80" height="80" rx="12" fill="#EBE1F1"/>
<rect x="127" y="45.8493" width="87" height="10" rx="5" fill="#DFDFDF"/>
<rect x="127" y="65.8493" width="70" height="10" rx="5" fill="#DFDFDF"/>
<rect x="127" y="85.8493" width="50" height="10" rx="5" fill="#DFDFDF"/>
<rect x="127" y="105.849" width="39" height="10" rx="5" fill="#DFDFDF"/>
<circle cx="157" cy="136" r="5" fill="#283E95"/>
<circle cx="171" cy="126" r="5" fill="#283E95"/>
<circle cx="138" cy="136" r="5" fill="#283E95" fill-opacity="0.7"/>
<circle cx="110" cy="139" r="5" fill="#283E95" fill-opacity="0.5"/>
<circle cx="124" cy="129" r="5" fill="#283E95" fill-opacity="0.6"/>
<circle cx="91" cy="139" r="5" fill="#283E95" fill-opacity="0.7"/>
<circle cx="108" cy="118" r="5" fill="#8697DC"/>
<circle cx="122" cy="108" r="5" fill="#8697DC"/>
<circle cx="89" cy="118" r="5" fill="#ADBEFF" fill-opacity="0.7"/>
<circle cx="61" cy="121" r="5" fill="#8798DF" fill-opacity="0.5"/>
<circle cx="75" cy="111" r="5" fill="#283E95" fill-opacity="0.6"/>
<circle cx="42" cy="121" r="5" fill="#ADBEFF" fill-opacity="0.7"/>
<circle cx="67" cy="153" r="5" fill="#283E95" fill-opacity="0.7"/>
<circle cx="84" cy="132" r="5" fill="#8697DC"/>
<circle cx="65" cy="132" r="5" fill="#ADBEFF" fill-opacity="0.7"/>
<circle cx="37" cy="135" r="5" fill="#8798DF" fill-opacity="0.5"/>
<circle cx="51" cy="125" r="5" fill="#283E95" fill-opacity="0.6"/>
<circle cx="18" cy="135" r="5" fill="#3F65F9" fill-opacity="0.7"/>
<circle cx="181" cy="151" r="5" fill="#283E95" fill-opacity="0.7"/>
<circle cx="198" cy="130" r="5" fill="#8697DC"/>
<circle cx="179" cy="130" r="5" fill="#3F65F9" fill-opacity="0.7"/>
<circle cx="151" cy="133" r="5" fill="#8798DF" fill-opacity="0.5"/>
<circle cx="165" cy="123" r="5" fill="#283E95" fill-opacity="0.6"/>
<circle cx="132" cy="133" r="5" fill="#3F65F9" fill-opacity="0.7"/>
<circle cx="224" cy="121" r="5" fill="#283E95" fill-opacity="0.7"/>
<circle cx="241" cy="100" r="5" fill="#8697DC"/>
<circle cx="222" cy="100" r="5" fill="#3F65F9" fill-opacity="0.7"/>
<circle cx="194" cy="103" r="5" fill="#8798DF" fill-opacity="0.5"/>
<circle cx="208" cy="93" r="5" fill="#283E95" fill-opacity="0.6"/>
<circle cx="175" cy="103" r="5" fill="#3F65F9" fill-opacity="0.7"/>
<circle cx="228" cy="156" r="5" fill="#283E95" fill-opacity="0.7"/>
<circle cx="245" cy="135" r="5" fill="#8697DC"/>
<circle cx="226" cy="135" r="5" fill="#3F65F9" fill-opacity="0.7"/>
<circle cx="198" cy="138" r="5" fill="#8798DF" fill-opacity="0.5"/>
<circle cx="212" cy="128" r="5" fill="#283E95" fill-opacity="0.6"/>
<circle cx="179" cy="138" r="5" fill="#3F65F9" fill-opacity="0.7"/>
<circle cx="157" cy="147" r="5" fill="#8697DC"/>
<circle cx="138" cy="147" r="5" fill="#3F65F9" fill-opacity="0.7"/>
<circle cx="110" cy="150" r="5" fill="#8798DF" fill-opacity="0.5"/>
<circle cx="124" cy="140" r="5" fill="#283E95" fill-opacity="0.6"/>
<circle cx="91" cy="150" r="5" fill="#ADBEFF" fill-opacity="0.7"/>
<circle cx="39" cy="161" r="5" fill="#283E95" fill-opacity="0.7"/>
<circle cx="56" cy="140" r="5" fill="#8697DC"/>
<circle cx="142" cy="151" r="5" fill="#283E95"/>
<circle cx="123" cy="151" r="5" fill="#283E95" fill-opacity="0.7"/>
<circle cx="95" cy="154" r="5" fill="#283E95" fill-opacity="0.5"/>
<circle cx="76" cy="154" r="5" fill="#283E95" fill-opacity="0.7"/>
<circle cx="69" cy="147" r="5" fill="#8697DC"/>
<circle cx="50" cy="147" r="5" fill="#ADBEFF" fill-opacity="0.7"/>
<circle cx="166" cy="166" r="5" fill="#283E95" fill-opacity="0.7"/>
<circle cx="136" cy="148" r="5" fill="#8798DF" fill-opacity="0.5"/>
<circle cx="117" cy="148" r="5" fill="#ADBEFF" fill-opacity="0.7"/>
<circle cx="230" cy="150" r="5" fill="#8697DC"/>
<circle cx="211" cy="150" r="5" fill="#3F65F9" fill-opacity="0.7"/>
<circle cx="183" cy="153" r="5" fill="#8798DF" fill-opacity="0.5"/>
<circle cx="164" cy="153" r="5" fill="#3F65F9" fill-opacity="0.7"/>
<circle cx="142" cy="162" r="5" fill="#8697DC"/>
<circle cx="123" cy="162" r="5" fill="#3F65F9" fill-opacity="0.7"/>
<circle cx="95" cy="165" r="5" fill="#8798DF" fill-opacity="0.5"/>
<circle cx="109" cy="155" r="5" fill="#283E95" fill-opacity="0.6"/>
<circle cx="76" cy="165" r="5" fill="#3F65F9" fill-opacity="0.7"/>
<circle cx="41" cy="155" r="5" fill="#8697DC"/>
<circle cx="247" cy="149" r="5" fill="#283E95"/>
<circle cx="228" cy="149" r="5" fill="#283E95" fill-opacity="0.7"/>
<circle cx="200" cy="152" r="5" fill="#283E95" fill-opacity="0.5"/>
<circle cx="181" cy="152" r="5" fill="#283E95" fill-opacity="0.7"/>
<circle cx="157" cy="166" r="5" fill="#283E95" fill-opacity="0.7"/>
<circle cx="174" cy="145" r="5" fill="#8697DC"/>
<circle cx="155" cy="145" r="5" fill="#3F65F9" fill-opacity="0.7"/>
<circle cx="241" cy="146" r="5" fill="#8798DF" fill-opacity="0.5"/>
<circle cx="222" cy="146" r="5" fill="#3F65F9" fill-opacity="0.7"/>
<circle cx="269" cy="151" r="5" fill="#3F65F9" fill-opacity="0.7"/>
<circle cx="247" cy="160" r="5" fill="#8697DC"/>
<circle cx="228" cy="160" r="5" fill="#3F65F9" fill-opacity="0.7"/>
<circle cx="200" cy="163" r="5" fill="#8798DF" fill-opacity="0.5"/>
<circle cx="214" cy="153" r="5" fill="#283E95" fill-opacity="0.6"/>
<circle cx="181" cy="163" r="5" fill="#3F65F9" fill-opacity="0.7"/>
<circle cx="146" cy="153" r="5" fill="#8697DC"/>
<circle cx="84" cy="148" r="5" fill="#283E95"/>
<circle cx="65" cy="148" r="5" fill="#283E95" fill-opacity="0.7"/>
<circle cx="37" cy="151" r="5" fill="#283E95" fill-opacity="0.5"/>
<circle cx="18" cy="151" r="5" fill="#283E95" fill-opacity="0.7"/>
<circle cx="11" cy="144" r="5" fill="#8697DC"/>
<circle cx="108" cy="163" r="5" fill="#283E95" fill-opacity="0.7"/>
<circle cx="78" cy="145" r="5" fill="#8798DF" fill-opacity="0.5"/>
<circle cx="59" cy="145" r="5" fill="#ADBEFF" fill-opacity="0.7"/>
<circle cx="172" cy="147" r="5" fill="#8697DC"/>
<circle cx="153" cy="147" r="5" fill="#3F65F9" fill-opacity="0.7"/>
<circle cx="125" cy="150" r="5" fill="#8798DF" fill-opacity="0.5"/>
<circle cx="106" cy="150" r="5" fill="#ADBEFF" fill-opacity="0.7"/>
<circle cx="84" cy="159" r="5" fill="#8697DC"/>
<circle cx="65" cy="159" r="5" fill="#ADBEFF" fill-opacity="0.7"/>
<circle cx="37" cy="162" r="5" fill="#8798DF" fill-opacity="0.5"/>
<circle cx="51" cy="152" r="5" fill="#283E95" fill-opacity="0.6"/>
<circle cx="18" cy="162" r="5" fill="#3F65F9" fill-opacity="0.7"/>
<circle cx="37" cy="140" r="5" fill="#ADBEFF" fill-opacity="0.7"/>
<circle cx="9" cy="143" r="5" fill="#8798DF" fill-opacity="0.5"/>
<circle cx="23" cy="133" r="5" fill="#283E95" fill-opacity="0.6"/>
<circle cx="28" cy="142" r="5" fill="#283E95" fill-opacity="0.7"/>
<circle cx="265" cy="117" r="5" fill="#283E95" fill-opacity="0.5"/>
<circle cx="246" cy="117" r="5" fill="#283E95" fill-opacity="0.7"/>
<circle cx="222" cy="131" r="5" fill="#283E95" fill-opacity="0.7"/>
<circle cx="239" cy="110" r="5" fill="#8697DC"/>
<circle cx="220" cy="110" r="5" fill="#ADBEFF" fill-opacity="0.7"/>
<circle cx="192" cy="113" r="5" fill="#8798DF" fill-opacity="0.5"/>
<circle cx="206" cy="103" r="5" fill="#283E95" fill-opacity="0.6"/>
<circle cx="248" cy="71" r="5" fill="#8697DC"/>
<circle cx="230" cy="71" r="5" fill="#3F65F9" fill-opacity="0.7"/>
<circle cx="214" cy="79" r="5" fill="#283E95" fill-opacity="0.6"/>
<circle cx="253" cy="91" r="5" fill="#8697DC"/>
<circle cx="233" cy="88" r="5" fill="#ADBEFF" fill-opacity="0.7"/>
<circle cx="190" cy="89" r="5" fill="#283E95" fill-opacity="0.6"/>
<circle cx="173" cy="113" r="5" fill="#3F65F9" fill-opacity="0.7"/>
<circle cx="265" cy="128" r="5" fill="#8798DF" fill-opacity="0.5"/>
<circle cx="246" cy="128" r="5" fill="#ADBEFF" fill-opacity="0.7"/>
<circle cx="211" cy="118" r="5" fill="#8697DC"/>
<circle cx="250" cy="132" r="5" fill="#283E95" fill-opacity="0.5"/>
<circle cx="231" cy="132" r="5" fill="#283E95" fill-opacity="0.7"/>
<circle cx="224" cy="125" r="5" fill="#8697DC"/>
<circle cx="205" cy="125" r="5" fill="#ADBEFF" fill-opacity="0.7"/>
<circle cx="264" cy="133" r="5" fill="#283E95" fill-opacity="0.6"/>
<circle cx="196" cy="133" r="5" fill="#8697DC"/>
<circle cx="239" cy="126" r="5" fill="#283E95"/>
<circle cx="220" cy="126" r="5" fill="#283E95" fill-opacity="0.7"/>
<circle cx="192" cy="129" r="5" fill="#283E95" fill-opacity="0.5"/>
<circle cx="173" cy="129" r="5" fill="#283E95" fill-opacity="0.7"/>
<circle cx="166" cy="122" r="5" fill="#8697DC"/>
<circle cx="233" cy="123" r="5" fill="#8798DF" fill-opacity="0.5"/>
<circle cx="214" cy="123" r="5" fill="#ADBEFF" fill-opacity="0.7"/>
<circle cx="261" cy="128" r="5" fill="#ADBEFF" fill-opacity="0.7"/>
<circle cx="206" cy="130" r="5" fill="#283E95" fill-opacity="0.6"/>
<circle cx="192" cy="118" r="5" fill="#ADBEFF" fill-opacity="0.7"/>
<circle cx="164" cy="121" r="5" fill="#8798DF" fill-opacity="0.5"/>
<circle cx="178" cy="111" r="5" fill="#283E95" fill-opacity="0.6"/>
<circle cx="183" cy="120" r="5" fill="#283E95" fill-opacity="0.7"/>
<circle cx="45" cy="121" r="5" fill="#8697DC"/>
<circle cx="26" cy="121" r="5" fill="#3F65F9" fill-opacity="0.7"/>
<circle cx="-2" cy="124" r="5" fill="#8798DF" fill-opacity="0.5"/>
<circle cx="12" cy="114" r="5" fill="#283E95" fill-opacity="0.6"/>
<circle cx="25" cy="116" r="5" fill="#283E95" fill-opacity="0.7"/>
<circle cx="23" cy="95" r="5" fill="#3F65F9" fill-opacity="0.7"/>
<circle cx="9" cy="88" r="5" fill="#283E95" fill-opacity="0.6"/>
</g>
<defs>
<clipPath id="clip0_249_2">
<rect y="0.849304" width="266" height="161" rx="23" fill="white"/>
</clipPath>
</defs>
</svg>
